<svg width="100%" height="100%" overflow="visible" style="display: block;" viewBox="0 0 12.1667 11.1" fill="none" xmlns="http://www.w3.org/2000/svg">
<g id="Filter">
<path id="Stroke 1" d="M4.9701 8.81194H0.769626" stroke="var(--stroke-0, #0A0A0A)" stroke-width="1.5" stroke-linecap="round" stroke-linejoin="round"/>
<path id="Stroke 3" d="M6.84365 2.35025H11.0441" stroke="var(--stroke-0, #0A0A0A)" stroke-width="1.5" stroke-linecap="round" stroke-linejoin="round"/>
<path id="Stroke 5" fill-rule="evenodd" clip-rule="evenodd" d="M3.90086 2.31417C3.90086 1.4504 3.19542 0.75 2.32543 0.75C1.45544 0.75 0.75 1.4504 0.75 2.31417C0.75 3.17794 1.45544 3.87834 2.32543 3.87834C3.19542 3.87834 3.90086 3.17794 3.90086 2.31417Z" stroke="var(--stroke-0, #0A0A0A)" stroke-width="1.5" stroke-linecap="round" stroke-linejoin="round"/>
<path id="Stroke 7" fill-rule="evenodd" clip-rule="evenodd" d="M11.4167 8.78583C11.4167 7.92206 10.7118 7.22166 9.84178 7.22166C8.97125 7.22166 8.26581 7.92206 8.26581 8.78583C8.26581 9.6496 8.97125 10.35 9.84178 10.35C10.7118 10.35 11.4167 9.6496 11.4167 8.78583Z" stroke="var(--stroke-0, #0A0A0A)" stroke-width="1.5" stroke-linecap="round" stroke-linejoin="round"/>
</g>
</svg>
