<svg preserveAspectRatio="none" width="100%" height="100%" overflow="visible" style="display: block;" viewBox="0 0 16.5 16.5" fill="none" xmlns="http://www.w3.org/2000/svg">
<g id="upwork">
<path id="Vector" d="M12.0105 4.17312C11.2936 4.18574 10.6028 4.44483 10.0544 4.90684C9.50601 5.36884 9.13341 6.00559 8.99927 6.71C8.32601 5.66359 7.79865 4.53022 7.43177 3.34125H5.87802V7.46625C5.87802 7.85645 5.72302 8.23067 5.4471 8.50658C5.17119 8.78249 4.79697 8.9375 4.40677 8.9375C4.01657 8.9375 3.64235 8.78249 3.36644 8.50658C3.09053 8.23067 2.93552 7.85645 2.93552 7.46625V3.34125L1.3749 3.37562V7.50062C1.37946 8.3029 1.70253 9.07051 2.27305 9.63459C2.84357 10.1987 3.6148 10.513 4.41708 10.5084C5.21936 10.5039 5.98697 10.1808 6.55105 9.61028C7.11512 9.03976 7.42946 8.26853 7.4249 7.46625V6.77875C7.75475 7.42573 8.134 8.04632 8.55927 8.635L7.61052 13.1794H9.20552L9.89302 9.8725C10.5302 10.282 11.2738 10.4948 12.0311 10.4844C12.8644 10.4844 13.6636 10.1534 14.2528 9.56414C14.842 8.97492 15.173 8.17578 15.173 7.3425C15.173 6.50922 14.842 5.71007 14.2528 5.12086C13.6636 4.53164 12.8644 4.20062 12.0311 4.20062L12.0105 4.17312ZM12.0105 8.86875C11.3645 8.84789 10.7454 8.6051 10.2574 8.18125L10.4155 7.55562V7.52125C10.5255 6.83375 10.8693 5.73375 12.0311 5.73375C12.2349 5.73194 12.4369 5.77038 12.6257 5.84688C12.8146 5.92337 12.9864 6.03641 13.1314 6.17951C13.2764 6.3226 13.3917 6.49293 13.4707 6.68071C13.5497 6.86849 13.5909 7.07003 13.5918 7.27375C13.577 7.68623 13.4089 8.07836 13.1202 8.37337C12.8316 8.66838 12.4432 8.84504 12.0311 8.86875H12.0105Z" fill="var(--fill-0, white)"/>
</g>
</svg>
